# xmcd
#
# Track frame offsets: 
#        150
#        16697
#        36482
#        58805
#        82040
#        101135
#        119485
#        138755
#        162437
#        179540
#        203960
#        222592
#        244457
#        262122
#        281757
#        306520
#
# Disc length: 4294 seconds
#
# Revision: 2
# Processed by: cddbd v1.5.2PL0 Copyright (c) Steve Scherf et al.
# Submitted via: ExactAudioCopyFreeDBPlugin 1.0
#
DISCID=0310c410
DTITLE=Various Artist - Malaco:  The Last Soul Company - A Thirty-Yea
DTITLE=r Retrospective [box set]
DYEAR=1999
DGENRE=Soul
TTITLE0=Keri Leigh - Here's Your Mop Mr. Johnson
TTITLE1=James Peterson - Don't Let the Devil Ride
TTITLE2=Ernie Johnson - Cold This Winter
TTITLE3=Shirley Brown - You Ain't Woman Enough to Take My Man
TTITLE4=Bobby Rush - One Monkey Don't Stop No Show
TTITLE5=Johnnie Taylor - Good Love
TTITLE6=Artie White - Your Man is Home Tonight
TTITLE7=Johnnie Taylor - Last Two Dollars
TTITLE8=Mel Walters - Got My Whiskey
TTITLE9=Tonya - I Been Having an Affair
TTITLE10=Tyrone Davis - Let Me Please You
TTITLE11=Shirley Brown - Who is Betty?
TTITLE12=Stan Mosley - Don't Make Me Creep
TTITLE13=Kristine - Tenderness
TTITLE14=Carl Sims - Two Lumps of Sugar
TTITLE15=Little Milton - Big Boned Woman
EXTD=
EXTT0=
EXTT1=
EXTT2=
EXTT3=
EXTT4=
EXTT5=
EXTT6=
EXTT7=
EXTT8=
EXTT9=
EXTT10=
EXTT11=
EXTT12=
EXTT13=
EXTT14=
EXTT15=
PLAYORDER=
